<svg xmlns="http://www.w3.org/2000/svg" viewBox="0 0 320 180" fill="none">
  <title>Illustrated orange nematode</title>
  <desc>A friendly orange cartoon nematode with a curled tail, one large eye and a blue droplet. Stylized story illustration, not a scientific species drawing.</desc>
  <defs>
    <linearGradient id="body" x1="49" y1="145" x2="261" y2="37" gradientUnits="userSpaceOnUse"><stop stop-color="#da7b3c"/><stop offset=".43" stop-color="#ef9d50"/><stop offset=".78" stop-color="#f6b663"/><stop offset="1" stop-color="#fac77c"/></linearGradient>
    <linearGradient id="underside" x1="104" y1="146" x2="243" y2="71" gradientUnits="userSpaceOnUse"><stop stop-color="#bd6133" stop-opacity=".4"/><stop offset="1" stop-color="#e38845" stop-opacity=".1"/></linearGradient>
    <linearGradient id="eye" x1="266" y1="31" x2="258" y2="85" gradientUnits="userSpaceOnUse"><stop stop-color="#fffdf5"/><stop offset="1" stop-color="#f2e9db"/></linearGradient>
    <linearGradient id="drop" x1="230" y1="45" x2="236" y2="77" gradientUnits="userSpaceOnUse"><stop stop-color="#8ee3e6"/><stop offset="1" stop-color="#4cafc9"/></linearGradient>
    <clipPath id="body-clip"><path d="M16 155c12-18 16-34 33-38 17-5 25 8 41 4 20-4 19-30 38-36 17-6 33 8 47 5 18-4 20-26 33-46 12-18 29-26 49-23 28 4 49 25 49 50 0 24-17 36-41 39-14 1-22 4-31 16-11 16-20 24-38 23-18-2-29-16-45-13-16 2-21 23-41 25-17 1-24-14-40-17-13-3-31 14-50 18-7 1-8-2-4-7Z"/></clipPath>
  </defs>
  <path d="M16 155c12-18 16-34 33-38 17-5 25 8 41 4 20-4 19-30 38-36 17-6 33 8 47 5 18-4 20-26 33-46 12-18 29-26 49-23 28 4 49 25 49 50 0 24-17 36-41 39-14 1-22 4-31 16-11 16-20 24-38 23-18-2-29-16-45-13-16 2-21 23-41 25-17 1-24-14-40-17-13-3-31 14-50 18-7 1-8-2-4-7Z" fill="url(#body)"/>
  <g clip-path="url(#body-clip)">
    <path d="M9 165c20-7 34-29 56-28 20 0 24 18 43 16 21-2 28-26 45-25 15 1 27 13 43 12 19-2 25-16 36-28 11-12 22-7 39-15 18-8 30-23 34-39l12 106Z" fill="url(#underside)"/>
    <path d="M25 145c12-16 18-23 29-23 16-1 24 8 37 6 20-3 22-29 38-34 16-5 31 10 47 4 15-5 22-26 31-42" stroke="#ffd38c" stroke-opacity=".6" stroke-width="3" stroke-linecap="round"/>
    <g fill="#d88243" opacity=".56">
      <ellipse cx="65" cy="130" rx="6" ry="4" transform="rotate(25 65 130)"/><ellipse cx="107" cy="136" rx="5" ry="8" transform="rotate(35 107 136)"/><ellipse cx="137" cy="107" rx="8" ry="5" transform="rotate(20 137 107)"/><ellipse cx="158" cy="123" rx="6" ry="4" transform="rotate(-15 158 123)"/><ellipse cx="180" cy="108" rx="7" ry="5" transform="rotate(-33 180 108)"/><ellipse cx="198" cy="129" rx="7" ry="5" transform="rotate(25 198 129)"/><ellipse cx="209" cy="90" rx="5" ry="8" transform="rotate(30 209 90)"/><ellipse cx="220" cy="110" rx="5" ry="3"/><ellipse cx="193" cy="106" rx="2" ry="3"/><ellipse cx="142" cy="122" rx="2" ry="3"/><ellipse cx="84" cy="137" rx="2" ry="2"/>
    </g>
    <g stroke="#fff1b9" stroke-opacity=".2" stroke-width=".8" stroke-linecap="round"><path d="m117 132 3 1m8-11 3 1m-21 25 3 1m48-32 3 1m5 10 3 1m35-14 3 1m-11 12 3 1m47-34 3 1m-1 9 3 1m-35-24 3 1m-130 50 3 1"/></g>
  </g>
  <path d="M252 31c-13 3-20 18-19 32 1 18 10 27 22 24 14-3 23-19 20-34-2-15-11-24-23-22Z" fill="#b87147" opacity=".24" transform="translate(3 3)"/>
  <path d="M252 31c-13 3-20 18-19 32 1 18 10 27 22 24 14-3 23-19 20-34-2-15-11-24-23-22Z" fill="url(#eye)"/>
  <path d="M257 42c-5 1-7 7-7 14s3 11 7 11c5-1 7-6 7-14-1-7-3-11-7-11Z" fill="#654336"/>
  <ellipse cx="256" cy="46" rx="1.9" ry="2.8" fill="#fffdf5"/>
  <path d="M226 47c-2 9-11 19-9 25 2 8 13 8 15 1 2-7-4-17-6-26Z" fill="url(#drop)"/>
  <path d="M222 65c-2 3-3 6-1 8" stroke="#c4f4ec" stroke-width="1.8" stroke-linecap="round" opacity=".75"/>
  <path d="M280 90c-5 4-10 4-14 2" stroke="#b46d3f" stroke-width="2" stroke-linecap="round" opacity=".6"/>
  <ellipse cx="285" cy="82" rx="8" ry="4.5" fill="#e99760" opacity=".45"/>
</svg>
